<svg width="112" height="112" xmlns="http://www.w3.org/2000/svg" viewBox="0 0 112 112" fill="none"><defs><linearGradient id="pt-tile-qual" x1="14" y1="10" x2="98" y2="102" gradientUnits="userSpaceOnUse"><stop offset="0" stop-color="#7FE9C4"></stop><stop offset="0.5" stop-color="#3FCF6E"></stop><stop offset="1" stop-color="#1BA463"></stop></linearGradient><radialGradient id="pt-glow-qual" cx="0.28" cy="0.2" r="0.65"><stop offset="0" stop-color="#fff" stop-opacity="0.55"></stop><stop offset="1" stop-color="#fff" stop-opacity="0"></stop></radialGradient><filter id="pt-shadow-qual" x="-30%" y="-20%" width="160%" height="160%"><feDropShadow dx="0" dy="8" stdDeviation="8" flood-color="#0F5132" flood-opacity="0.28"></feDropShadow></filter></defs><rect x="6" y="6" width="100" height="100" rx="28" fill="url(#pt-tile-qual)" filter="url(#pt-shadow-qual)"></rect><rect x="6" y="6" width="100" height="100" rx="28" fill="url(#pt-glow-qual)"></rect><rect x="33" y="27" width="34" height="46" rx="6" fill="#fff" fill-opacity="0.95"></rect><g><circle cx="41" cy="35" r="3.4" fill="none" stroke="#1BA463" stroke-width="2.4"></circle><path d="M39 35l1.4 1.6L43 33" stroke="#1BA463" stroke-width="1.8" stroke-linecap="round" stroke-linejoin="round"></path><rect x="48" y="33.4" width="14" height="3.2" rx="1.6" fill="#1BA463" fill-opacity="0.45"></rect></g><g><circle cx="41" cy="45" r="3.4" fill="none" stroke="#1BA463" stroke-width="2.4"></circle><path d="M39 45l1.4 1.6L43 43" stroke="#1BA463" stroke-width="1.8" stroke-linecap="round" stroke-linejoin="round"></path><rect x="48" y="43.4" width="14" height="3.2" rx="1.6" fill="#1BA463" fill-opacity="0.45"></rect></g><g><circle cx="41" cy="55" r="3.4" fill="none" stroke="#1BA463" stroke-width="2.4"></circle><path d="M39 55l1.4 1.6L43 53" stroke="#1BA463" stroke-width="1.8" stroke-linecap="round" stroke-linejoin="round"></path><rect x="48" y="53.4" width="14" height="3.2" rx="1.6" fill="#1BA463" fill-opacity="0.45"></rect></g><circle cx="73" cy="70" r="13" fill="#fff" stroke="#fff" stroke-width="2"></circle><circle cx="73" cy="70" r="10" fill="none" stroke="#1BA463" stroke-width="4.2"></circle><line x1="81" y1="78" x2="90" y2="87" stroke="#1BA463" stroke-width="5" stroke-linecap="round"></line></svg>
