<svg width="96" height="96" xmlns="http://www.w3.org/2000/svg" viewBox="0 0 96 96" fill="none"><defs><filter id="sv-sh-hc" x="-35%" y="-30%" width="170%" height="180%"><feDropShadow dx="0" dy="6" stdDeviation="5" flood-color="#0B4C3A" flood-opacity="0.26"></feDropShadow></filter><linearGradient id="hc-a" x1="12" y1="10" x2="82" y2="84" gradientUnits="userSpaceOnUse"><stop offset="0" stop-color="#FFB3C1"></stop><stop offset="0.42" stop-color="#F65A72"></stop><stop offset="1" stop-color="#C81E45"></stop></linearGradient><radialGradient id="hc-gloss" cx="0.3" cy="0.2" r="0.62"><stop offset="0" stop-color="#fff" stop-opacity="0.9"></stop><stop offset="1" stop-color="#fff" stop-opacity="0"></stop></radialGradient><linearGradient id="hc-cross" x1="48" y1="34" x2="82" y2="70" gradientUnits="userSpaceOnUse"><stop offset="0" stop-color="#B6ECC6"></stop><stop offset="0.45" stop-color="#4FD189"></stop><stop offset="1" stop-color="#12855A"></stop></linearGradient></defs><ellipse cx="46" cy="88" rx="27" ry="5" fill="#0B2B1C" opacity="0.1"></ellipse><g filter="url(#sv-sh-hc)"><path d="M46 84C24 68 8 53 8 35.5 8 22.5 18 12 30.5 12c7.2 0 13.6 3.5 17.5 9 3.9-5.5 10.3-9 17.5-9C78 12 88 22.5 88 35.5 88 53 68 68 46 84Z" fill="url(#hc-a)"></path><path d="M46 84C24 68 8 53 8 35.5 8 22.5 18 12 30.5 12c7.2 0 13.6 3.5 17.5 9 3.9-5.5 10.3-9 17.5-9C78 12 88 22.5 88 35.5 88 53 68 68 46 84Z" fill="url(#hc-gloss)"></path><path d="M24 24c-5 3.5-8 8.6-8 13.6 0 2 2.6 2.6 3.6.8 2.6-4.6 6-8.6 10.2-11.4 1.9-1.3.9-4.3-1.4-4.3-1.6 0-3 .4-4.4 1.3Z" fill="#fff" fill-opacity="0.6"></path></g><g filter="url(#sv-sh-hc)"><rect x="59" y="35" width="14" height="38" rx="6" fill="url(#hc-cross)"></rect><rect x="47" y="47" width="38" height="14" rx="6" fill="url(#hc-cross)"></rect><rect x="61.5" y="38" width="4" height="12" rx="2" fill="#fff" fill-opacity="0.55"></rect></g></svg>
