<svg width="96" height="96" xmlns="http://www.w3.org/2000/svg" viewBox="0 0 96 96" fill="none"><defs><filter id="sv-sh-ms" x="-35%" y="-30%" width="170%" height="180%"><feDropShadow dx="0" dy="6" stdDeviation="5" flood-color="#0B4C3A" flood-opacity="0.26"></feDropShadow></filter><linearGradient id="ms-hand" x1="20" y1="26" x2="72" y2="82" gradientUnits="userSpaceOnUse"><stop offset="0" stop-color="#FFEBDC"></stop><stop offset="0.5" stop-color="#FFCFAE"></stop><stop offset="1" stop-color="#E29B6F"></stop></linearGradient><linearGradient id="ms-wave" x1="24" y1="10" x2="80" y2="34" gradientUnits="userSpaceOnUse"><stop offset="0" stop-color="#8FE9F7"></stop><stop offset="1" stop-color="#2CC176"></stop></linearGradient></defs><ellipse cx="48" cy="88" rx="26" ry="5" fill="#0B2B1C" opacity="0.1"></ellipse><g stroke="url(#ms-wave)" stroke-linecap="round" fill="none"><path d="M28 30c5-7 12-11 20-11s15 4 20 11" stroke-width="4" opacity="0.95"></path><path d="M22 21c7-8 16-13 26-13s19 5 26 13" stroke-width="3.4" opacity="0.6"></path></g><g filter="url(#sv-sh-ms)" transform="rotate(6 48 58)"><rect x="31" y="34" width="8.5" height="26" rx="4.25" fill="url(#ms-hand)"></rect><rect x="41" y="30" width="8.5" height="30" rx="4.25" fill="url(#ms-hand)"></rect><rect x="51" y="32" width="8.5" height="28" rx="4.25" fill="url(#ms-hand)"></rect><rect x="61" y="38" width="8" height="22" rx="4" fill="url(#ms-hand)"></rect><path d="M29 54h42v12c0 8.8-7.2 16-16 16H45c-8.8 0-16-7.2-16-16V54Z" fill="url(#ms-hand)"></path><rect x="14" y="56" width="20" height="10.5" rx="5.25" fill="url(#ms-hand)" transform="rotate(-18 24 61)"></rect><path d="M36 62c0 6 2.5 11 7 14" stroke="#fff" stroke-opacity="0.55" stroke-width="4" stroke-linecap="round" fill="none"></path></g></svg>
